<svg width="35" height="29" viewBox="0 0 35 29" fill="none" xmlns="http://www.w3.org/2000/svg">
<path fill-rule="evenodd" clip-rule="evenodd" d="M18.1875 16.5C18.2729 16.5492 18.3478 16.6148 18.4078 16.6929C18.4678 16.7711 18.5119 16.8603 18.5374 16.9555C18.563 17.0507 18.5695 17.15 18.5566 17.2477C18.5438 17.3454 18.5118 17.4397 18.4625 17.525L12.2125 28.35C12.1632 28.4354 12.0977 28.5102 12.0195 28.5702C11.9413 28.6302 11.8521 28.6742 11.7569 28.6998C11.6618 28.7253 11.5625 28.7319 11.4648 28.719C11.3671 28.7062 11.2728 28.6742 11.1875 28.625C11.1021 28.5758 11.0273 28.5102 10.9673 28.432C10.9073 28.3539 10.8632 28.2646 10.8377 28.1695C10.8122 28.0743 10.8056 27.975 10.8185 27.8773C10.8313 27.7796 10.8632 27.6854 10.9125 27.6L17.1625 16.775C17.2117 16.6896 17.2773 16.6147 17.3554 16.5547C17.4336 16.4946 17.5228 16.4506 17.618 16.425C17.7132 16.3995 17.8125 16.393 17.9102 16.4058C18.0079 16.4187 18.1021 16.4507 18.1875 16.5ZM22.1875 16.5C22.2729 16.5492 22.3478 16.6148 22.4078 16.6929C22.4678 16.7711 22.5119 16.8603 22.5374 16.9555C22.563 17.0507 22.5695 17.15 22.5566 17.2477C22.5438 17.3454 22.5118 17.4397 22.4625 17.525L16.2125 28.35C16.1632 28.4354 16.0977 28.5102 16.0195 28.5702C15.9413 28.6302 15.8521 28.6742 15.7569 28.6998C15.6618 28.7253 15.5625 28.7319 15.4648 28.719C15.3671 28.7062 15.2728 28.6742 15.1875 28.625C15.1021 28.5758 15.0273 28.5102 14.9673 28.432C14.9073 28.3539 14.8632 28.2646 14.8377 28.1695C14.8122 28.0743 14.8056 27.975 14.8185 27.8773C14.8313 27.7796 14.8632 27.6854 14.9125 27.6L21.1625 16.775C21.2117 16.6896 21.2773 16.6147 21.3554 16.5547C21.4336 16.4946 21.5228 16.4506 21.618 16.425C21.7132 16.3995 21.8125 16.393 21.9102 16.4058C22.0079 16.4187 22.1021 16.4507 22.1875 16.5ZM10.1875 16.5C10.2729 16.5492 10.3478 16.6148 10.4078 16.6929C10.4678 16.7711 10.5119 16.8603 10.5374 16.9555C10.563 17.0507 10.5695 17.15 10.5566 17.2477C10.5438 17.3454 10.5118 17.4397 10.4625 17.525L4.21249 28.35C4.16324 28.4354 4.09767 28.5102 4.0195 28.5702C3.94134 28.6302 3.85212 28.6742 3.75694 28.6998C3.66176 28.7253 3.56249 28.7319 3.46478 28.719C3.36707 28.7062 3.27285 28.6742 3.18749 28.625C3.10213 28.5758 3.02731 28.5102 2.96729 28.432C2.90727 28.3539 2.86324 28.2646 2.8377 28.1695C2.81217 28.0743 2.80563 27.975 2.81846 27.8773C2.83129 27.7796 2.86324 27.6854 2.91249 27.6L9.16249 16.775C9.2117 16.6896 9.27725 16.6147 9.35541 16.5547C9.43357 16.4946 9.52279 16.4506 9.61799 16.425C9.71318 16.3995 9.81248 16.393 9.9102 16.4058C10.0079 16.4187 10.1021 16.4507 10.1875 16.5ZM26.0535 16.5C26.1389 16.5492 26.2138 16.6148 26.2738 16.6929C26.3338 16.7711 26.3779 16.8603 26.4034 16.9555C26.429 17.0507 26.4355 17.15 26.4226 17.2477C26.4098 17.3454 26.3778 17.4397 26.3285 17.525L20.0775 28.35C19.978 28.5224 19.8142 28.6482 19.6219 28.6998C19.4297 28.7514 19.2249 28.7245 19.0525 28.625C18.8801 28.5255 18.7543 28.3617 18.7027 28.1695C18.6511 27.9772 18.678 27.7724 18.7775 27.6L25.0275 16.775C25.0767 16.6896 25.1423 16.6147 25.2204 16.5547C25.2986 16.4946 25.3878 16.4506 25.483 16.425C25.5782 16.3995 25.6775 16.393 25.7752 16.4058C25.8729 16.4187 25.9671 16.4507 26.0525 16.5H26.0535ZM30.0535 16.5C30.1389 16.5492 30.2138 16.6148 30.2738 16.6929C30.3338 16.7711 30.3779 16.8603 30.4034 16.9555C30.429 17.0507 30.4355 17.15 30.4226 17.2477C30.4098 17.3454 30.3778 17.4397 30.3285 17.525L24.0775 28.35C23.978 28.5224 23.8142 28.6482 23.6219 28.6998C23.4297 28.7514 23.2249 28.7245 23.0525 28.625C22.8801 28.5255 22.7543 28.3617 22.7027 28.1695C22.6511 27.9772 22.678 27.7724 22.7775 27.6L29.0275 16.775C29.0767 16.6896 29.1423 16.6147 29.2204 16.5547C29.2986 16.4946 29.3878 16.4506 29.483 16.425C29.5782 16.3995 29.6775 16.393 29.7752 16.4058C29.8729 16.4187 29.9671 16.4507 30.0525 16.5H30.0535ZM14.1875 16.5C14.2729 16.5492 14.3478 16.6148 14.4078 16.6929C14.4678 16.7711 14.5119 16.8603 14.5374 16.9555C14.563 17.0507 14.5695 17.15 14.5566 17.2477C14.5438 17.3454 14.5118 17.4397 14.4625 17.525L8.21249 28.35C8.16324 28.4354 8.09767 28.5102 8.0195 28.5702C7.94134 28.6302 7.85212 28.6742 7.75694 28.6998C7.66176 28.7253 7.56249 28.7319 7.46478 28.719C7.36707 28.7062 7.27285 28.6742 7.18749 28.625C7.10213 28.5758 7.02731 28.5102 6.96729 28.432C6.90727 28.3539 6.86324 28.2646 6.8377 28.1695C6.81217 28.0743 6.80563 27.975 6.81846 27.8773C6.83129 27.7796 6.86324 27.6854 6.91249 27.6L13.1625 16.775C13.2117 16.6896 13.2773 16.6147 13.3554 16.5547C13.4336 16.4946 13.5228 16.4506 13.618 16.425C13.7132 16.3995 13.8125 16.393 13.9102 16.4058C14.0079 16.4187 14.1021 16.4507 14.1875 16.5Z" fill="#66ABFF"/>
<path fill-rule="evenodd" clip-rule="evenodd" d="M27.2885 8C26.7915 6.128 25.1005 4.75 23.0925 4.75C22.6805 4.75 22.2825 4.808 21.9045 4.916C20.5355 2.015 17.5275 0 14.0375 0C9.3025 0 5.4565 3.707 5.3835 8.306C3.77905 8.79664 2.4042 9.84724 1.50933 11.2665C0.614453 12.6857 0.259094 14.3791 0.507966 16.0383C0.756839 17.6976 1.59339 19.2122 2.86526 20.3064C4.13713 21.4007 5.75971 22.0017 7.4375 22H27.4375C29.294 22 31.0745 21.2625 32.3873 19.9497C33.7 18.637 34.4375 16.8565 34.4375 15C34.4375 13.1435 33.7 11.363 32.3873 10.0503C31.0745 8.7375 29.294 8 27.4375 8H27.2885Z" fill="#DDDDDD"/>
</svg>
