<svg width="35" height="32" viewBox="0 0 35 32" fill="none" xmlns="http://www.w3.org/2000/svg">
<path d="M21.6875 2.00197e-06C22.2395 2.00197e-06 22.6875 0.440002 22.6875 0.984002V2.016C22.6875 2.559 22.2395 3 21.6875 3C21.1355 3 20.6875 2.56 20.6875 2.016V0.984002C20.6885 0.85373 20.7152 0.724939 20.766 0.604984C20.8169 0.485029 20.8908 0.376259 20.9837 0.284885C21.0765 0.193512 21.1865 0.121324 21.3072 0.0724436C21.428 0.023563 21.5572 -0.00105282 21.6875 2.00197e-06ZM30.6875 13C30.6875 14.1819 30.4547 15.3522 30.0024 16.4442C29.5501 17.5361 28.8872 18.5282 28.0514 19.364C27.2157 20.1997 26.2236 20.8626 25.1316 21.3149C24.0397 21.7672 22.8694 22 21.6875 22C20.5056 22 19.3353 21.7672 18.2433 21.3149C17.1514 20.8626 16.1592 20.1997 15.3235 19.364C14.4878 18.5282 13.8248 17.5361 13.3726 16.4442C12.9203 15.3522 12.6875 14.1819 12.6875 13C12.6875 11.8181 12.9203 10.6478 13.3726 9.55585C13.8248 8.46392 14.4878 7.47177 15.3235 6.63604C16.1592 5.80031 17.1514 5.13738 18.2433 4.68509C19.3353 4.23279 20.5056 4 21.6875 4C22.8694 4 24.0397 4.23279 25.1316 4.68509C26.2236 5.13738 27.2157 5.80031 28.0514 6.63604C28.8872 7.47177 29.5501 8.46392 30.0024 9.55585C30.4547 10.6478 30.6875 11.8181 30.6875 13ZM28.1875 1.742C28.4163 1.87171 28.5843 2.08701 28.6544 2.34055C28.7246 2.5941 28.6911 2.86511 28.5615 3.094L28.0455 3.988C27.9121 4.21476 27.694 4.37923 27.4394 4.44525C27.1847 4.51126 26.9142 4.4734 26.6875 4.34C26.4586 4.21029 26.2906 3.99499 26.2205 3.74145C26.1504 3.48791 26.1838 3.21689 26.3135 2.988L26.8295 2.094C26.9629 1.86724 27.1809 1.70277 27.4356 1.63676C27.6902 1.57074 27.9607 1.6086 28.1875 1.742ZM32.9455 6.5C33.0789 6.72676 33.1167 6.99723 33.0507 7.2519C32.9847 7.50657 32.8202 7.7246 32.5935 7.858L31.6995 8.374C31.4706 8.50367 31.1996 8.53711 30.946 8.46698C30.6925 8.39684 30.4772 8.22887 30.3475 8C30.2141 7.77324 30.1762 7.50278 30.2422 7.2481C30.3082 6.99343 30.4727 6.77541 30.6995 6.642L31.5935 6.126C31.8224 5.99634 32.0934 5.96289 32.3469 6.03303C32.6005 6.10317 32.8158 6.27114 32.9455 6.5ZM34.6875 13C34.6875 13.552 34.2475 14 33.7035 14H32.6715C32.1285 14 31.6875 13.552 31.6875 13C31.6875 12.448 32.1275 12 32.6715 12H33.7035C34.2465 12 34.6875 12.448 34.6875 13ZM32.9455 19.5C32.8158 19.7289 32.6005 19.8968 32.3469 19.967C32.0934 20.0371 31.8224 20.0037 31.5935 19.874L30.6995 19.358C30.4727 19.2246 30.3082 19.0066 30.2422 18.7519C30.1762 18.4972 30.2141 18.2268 30.3475 18C30.4772 17.7711 30.6925 17.6032 30.946 17.533C31.1996 17.4629 31.4706 17.4963 31.6995 17.626L32.5935 18.142C33.0635 18.414 33.2215 19.022 32.9455 19.5ZM28.1875 24.258C27.9607 24.3914 27.6902 24.4293 27.4356 24.3632C27.1809 24.2972 26.9629 24.1328 26.8295 23.906L26.3135 23.012C26.1838 22.7831 26.1504 22.5121 26.2205 22.2586C26.2906 22.005 26.4586 21.7897 26.6875 21.66C26.9142 21.5266 27.1847 21.4887 27.4394 21.5548C27.694 21.6208 27.9121 21.7852 28.0455 22.012L28.5615 22.906C28.6911 23.1349 28.7246 23.4059 28.6544 23.6595C28.5843 23.913 28.4163 24.1283 28.1875 24.258ZM21.6875 26C21.1355 26 20.6875 25.56 20.6875 25.016V23.984C20.6875 23.441 21.1355 23 21.6875 23C22.2395 23 22.6875 23.44 22.6875 23.984V25.016C22.6864 25.1463 22.6597 25.2751 22.6089 25.395C22.5581 25.515 22.4841 25.6237 22.3913 25.7151C22.2984 25.8065 22.1885 25.8787 22.0677 25.9276C21.9469 25.9764 21.8177 26.0011 21.6875 26ZM15.1875 24.258C14.9586 24.1283 14.7906 23.913 14.7205 23.6595C14.6504 23.4059 14.6838 23.1349 14.8135 22.906L15.3295 22.012C15.4629 21.7852 15.6809 21.6208 15.9356 21.5548C16.1902 21.4887 16.4607 21.5266 16.6875 21.66C16.9163 21.7897 17.0843 22.005 17.1544 22.2586C17.2246 22.5121 17.1911 22.7831 17.0615 23.012L16.5455 23.906C16.4121 24.1328 16.194 24.2972 15.9394 24.3632C15.6847 24.4293 15.4142 24.3914 15.1875 24.258ZM10.4295 19.5C10.2961 19.2732 10.2582 19.0028 10.3242 18.7481C10.3902 18.4934 10.5547 18.2754 10.7815 18.142L11.6755 17.626C11.9044 17.4963 12.1754 17.4629 12.4289 17.533C12.6825 17.6032 12.8978 17.7711 13.0275 18C13.1609 18.2268 13.1987 18.4972 13.1327 18.7519C13.0667 19.0066 12.9022 19.2246 12.6755 19.358L11.7815 19.874C11.5526 20.0037 11.2816 20.0371 11.028 19.967C10.7745 19.8968 10.5592 19.7289 10.4295 19.5ZM8.68747 13C8.68747 12.448 9.12747 12 9.67147 12H10.7035C11.2465 12 11.6875 12.448 11.6875 13C11.6875 13.552 11.2475 14 10.7035 14H9.67147C9.5412 13.999 9.41241 13.9723 9.29245 13.9214C9.1725 13.8706 9.06373 13.7967 8.97235 13.7038C8.88098 13.6109 8.80879 13.501 8.75991 13.3802C8.71103 13.2595 8.68642 13.1303 8.68747 13ZM10.4295 6.5C10.5592 6.27114 10.7745 6.10317 11.028 6.03303C11.2816 5.96289 11.5526 5.99634 11.7815 6.126L12.6755 6.642C13.1455 6.914 13.3035 7.522 13.0275 8C12.8978 8.22887 12.6825 8.39684 12.4289 8.46698C12.1754 8.53711 11.9044 8.50367 11.6755 8.374L10.7815 7.858C10.5547 7.7246 10.3902 7.50657 10.3242 7.2519C10.2582 6.99723 10.2961 6.72676 10.4295 6.5ZM15.1875 1.742C15.4142 1.6086 15.6847 1.57074 15.9394 1.63676C16.194 1.70277 16.4121 1.86724 16.5455 2.094L17.0615 2.988C17.1911 3.21689 17.2246 3.48791 17.1544 3.74145C17.0843 3.99499 16.9163 4.21029 16.6875 4.34C16.4607 4.4734 16.1902 4.51126 15.9356 4.44525C15.6809 4.37923 15.4629 4.21476 15.3295 3.988L14.8135 3.094C14.6838 2.86511 14.6504 2.5941 14.7205 2.34055C14.7906 2.08701 14.9586 1.87171 15.1875 1.742Z" fill="#F1A031"/>
<path d="M21.6875 2.00197e-06C22.2395 2.00197e-06 22.6875 0.440002 22.6875 0.984002V2.016C22.6875 2.559 22.2395 3 21.6875 3C21.1355 3 20.6875 2.56 20.6875 2.016V0.984002C20.6885 0.85373 20.7152 0.724939 20.766 0.604984C20.8169 0.485029 20.8908 0.376259 20.9837 0.284885C21.0765 0.193512 21.1865 0.121324 21.3072 0.0724436C21.428 0.023563 21.5572 -0.00105282 21.6875 2.00197e-06ZM30.6875 13C30.6875 14.1819 30.4547 15.3522 30.0024 16.4442C29.5501 17.5361 28.8872 18.5282 28.0514 19.364C27.2157 20.1997 26.2236 20.8626 25.1316 21.3149C24.0397 21.7672 22.8694 22 21.6875 22C20.5056 22 19.3353 21.7672 18.2433 21.3149C17.1514 20.8626 16.1592 20.1997 15.3235 19.364C14.4878 18.5282 13.8248 17.5361 13.3726 16.4442C12.9203 15.3522 12.6875 14.1819 12.6875 13C12.6875 11.8181 12.9203 10.6478 13.3726 9.55585C13.8248 8.46392 14.4878 7.47177 15.3235 6.63604C16.1592 5.80031 17.1514 5.13738 18.2433 4.68509C19.3353 4.23279 20.5056 4 21.6875 4C22.8694 4 24.0397 4.23279 25.1316 4.68509C26.2236 5.13738 27.2157 5.80031 28.0514 6.63604C28.8872 7.47177 29.5501 8.46392 30.0024 9.55585C30.4547 10.6478 30.6875 11.8181 30.6875 13ZM28.1875 1.742C28.4163 1.87171 28.5843 2.08701 28.6544 2.34055C28.7246 2.5941 28.6911 2.86511 28.5615 3.094L28.0455 3.988C27.9121 4.21476 27.694 4.37923 27.4394 4.44525C27.1847 4.51126 26.9142 4.4734 26.6875 4.34C26.4586 4.21029 26.2906 3.99499 26.2205 3.74145C26.1504 3.48791 26.1838 3.21689 26.3135 2.988L26.8295 2.094C26.9629 1.86724 27.1809 1.70277 27.4356 1.63676C27.6902 1.57074 27.9607 1.6086 28.1875 1.742ZM32.9455 6.5C33.0789 6.72676 33.1167 6.99723 33.0507 7.2519C32.9847 7.50657 32.8202 7.7246 32.5935 7.858L31.6995 8.374C31.4706 8.50367 31.1996 8.53711 30.946 8.46698C30.6925 8.39684 30.4772 8.22887 30.3475 8C30.2141 7.77324 30.1762 7.50278 30.2422 7.2481C30.3082 6.99343 30.4727 6.77541 30.6995 6.642L31.5935 6.126C31.8224 5.99634 32.0934 5.96289 32.3469 6.03303C32.6005 6.10317 32.8158 6.27114 32.9455 6.5ZM34.6875 13C34.6875 13.552 34.2475 14 33.7035 14H32.6715C32.1285 14 31.6875 13.552 31.6875 13C31.6875 12.448 32.1275 12 32.6715 12H33.7035C34.2465 12 34.6875 12.448 34.6875 13ZM32.9455 19.5C32.8158 19.7289 32.6005 19.8968 32.3469 19.967C32.0934 20.0371 31.8224 20.0037 31.5935 19.874L30.6995 19.358C30.4727 19.2246 30.3082 19.0066 30.2422 18.7519C30.1762 18.4972 30.2141 18.2268 30.3475 18C30.4772 17.7711 30.6925 17.6032 30.946 17.533C31.1996 17.4629 31.4706 17.4963 31.6995 17.626L32.5935 18.142C33.0635 18.414 33.2215 19.022 32.9455 19.5ZM28.1875 24.258C27.9607 24.3914 27.6902 24.4293 27.4356 24.3632C27.1809 24.2972 26.9629 24.1328 26.8295 23.906L26.3135 23.012C26.1838 22.7831 26.1504 22.5121 26.2205 22.2586C26.2906 22.005 26.4586 21.7897 26.6875 21.66C26.9142 21.5266 27.1847 21.4887 27.4394 21.5548C27.694 21.6208 27.9121 21.7852 28.0455 22.012L28.5615 22.906C28.6911 23.1349 28.7246 23.4059 28.6544 23.6595C28.5843 23.913 28.4163 24.1283 28.1875 24.258ZM21.6875 26C21.1355 26 20.6875 25.56 20.6875 25.016V23.984C20.6875 23.441 21.1355 23 21.6875 23C22.2395 23 22.6875 23.44 22.6875 23.984V25.016C22.6864 25.1463 22.6597 25.2751 22.6089 25.395C22.5581 25.515 22.4841 25.6237 22.3913 25.7151C22.2984 25.8065 22.1885 25.8787 22.0677 25.9276C21.9469 25.9764 21.8177 26.0011 21.6875 26ZM15.1875 24.258C14.9586 24.1283 14.7906 23.913 14.7205 23.6595C14.6504 23.4059 14.6838 23.1349 14.8135 22.906L15.3295 22.012C15.4629 21.7852 15.6809 21.6208 15.9356 21.5548C16.1902 21.4887 16.4607 21.5266 16.6875 21.66C16.9163 21.7897 17.0843 22.005 17.1544 22.2586C17.2246 22.5121 17.1911 22.7831 17.0615 23.012L16.5455 23.906C16.4121 24.1328 16.194 24.2972 15.9394 24.3632C15.6847 24.4293 15.4142 24.3914 15.1875 24.258ZM10.4295 19.5C10.2961 19.2732 10.2582 19.0028 10.3242 18.7481C10.3902 18.4934 10.5547 18.2754 10.7815 18.142L11.6755 17.626C11.9044 17.4963 12.1754 17.4629 12.4289 17.533C12.6825 17.6032 12.8978 17.7711 13.0275 18C13.1609 18.2268 13.1987 18.4972 13.1327 18.7519C13.0667 19.0066 12.9022 19.2246 12.6755 19.358L11.7815 19.874C11.5526 20.0037 11.2816 20.0371 11.028 19.967C10.7745 19.8968 10.5592 19.7289 10.4295 19.5ZM8.68747 13C8.68747 12.448 9.12747 12 9.67147 12H10.7035C11.2465 12 11.6875 12.448 11.6875 13C11.6875 13.552 11.2475 14 10.7035 14H9.67147C9.5412 13.999 9.41241 13.9723 9.29245 13.9214C9.1725 13.8706 9.06373 13.7967 8.97235 13.7038C8.88098 13.6109 8.80879 13.501 8.75991 13.3802C8.71103 13.2595 8.68642 13.1303 8.68747 13ZM10.4295 6.5C10.5592 6.27114 10.7745 6.10317 11.028 6.03303C11.2816 5.96289 11.5526 5.99634 11.7815 6.126L12.6755 6.642C13.1455 6.914 13.3035 7.522 13.0275 8C12.8978 8.22887 12.6825 8.39684 12.4289 8.46698C12.1754 8.53711 11.9044 8.50367 11.6755 8.374L10.7815 7.858C10.5547 7.7246 10.3902 7.50657 10.3242 7.2519C10.2582 6.99723 10.2961 6.72676 10.4295 6.5ZM15.1875 1.742C15.4142 1.6086 15.6847 1.57074 15.9394 1.63676C16.194 1.70277 16.4121 1.86724 16.5455 2.094L17.0615 2.988C17.1911 3.21689 17.2246 3.48791 17.1544 3.74145C17.0843 3.99499 16.9163 4.21029 16.6875 4.34C16.4607 4.4734 16.1902 4.51126 15.9356 4.44525C15.6809 4.37923 15.4629 4.21476 15.3295 3.988L14.8135 3.094C14.6838 2.86511 14.6504 2.5941 14.7205 2.34055C14.7906 2.08701 14.9586 1.87171 15.1875 1.742Z" fill="#FBB327"/>
<path d="M21.6875 2.00197e-06C22.2395 2.00197e-06 22.6875 0.440002 22.6875 0.984002V2.016C22.6875 2.559 22.2395 3 21.6875 3C21.1355 3 20.6875 2.56 20.6875 2.016V0.984002C20.6885 0.85373 20.7152 0.724939 20.766 0.604984C20.8169 0.485029 20.8908 0.376259 20.9837 0.284885C21.0765 0.193512 21.1865 0.121324 21.3072 0.0724436C21.428 0.023563 21.5572 -0.00105282 21.6875 2.00197e-06ZM30.6875 13C30.6875 14.1819 30.4547 15.3522 30.0024 16.4442C29.5501 17.5361 28.8872 18.5282 28.0514 19.364C27.2157 20.1997 26.2236 20.8626 25.1316 21.3149C24.0397 21.7672 22.8694 22 21.6875 22C20.5056 22 19.3353 21.7672 18.2433 21.3149C17.1514 20.8626 16.1592 20.1997 15.3235 19.364C14.4878 18.5282 13.8248 17.5361 13.3726 16.4442C12.9203 15.3522 12.6875 14.1819 12.6875 13C12.6875 11.8181 12.9203 10.6478 13.3726 9.55585C13.8248 8.46392 14.4878 7.47177 15.3235 6.63604C16.1592 5.80031 17.1514 5.13738 18.2433 4.68509C19.3353 4.23279 20.5056 4 21.6875 4C22.8694 4 24.0397 4.23279 25.1316 4.68509C26.2236 5.13738 27.2157 5.80031 28.0514 6.63604C28.8872 7.47177 29.5501 8.46392 30.0024 9.55585C30.4547 10.6478 30.6875 11.8181 30.6875 13ZM28.1875 1.742C28.4163 1.87171 28.5843 2.08701 28.6544 2.34055C28.7246 2.5941 28.6911 2.86511 28.5615 3.094L28.0455 3.988C27.9121 4.21476 27.694 4.37923 27.4394 4.44525C27.1847 4.51126 26.9142 4.4734 26.6875 4.34C26.4586 4.21029 26.2906 3.99499 26.2205 3.74145C26.1504 3.48791 26.1838 3.21689 26.3135 2.988L26.8295 2.094C26.9629 1.86724 27.1809 1.70277 27.4356 1.63676C27.6902 1.57074 27.9607 1.6086 28.1875 1.742ZM32.9455 6.5C33.0789 6.72676 33.1167 6.99723 33.0507 7.2519C32.9847 7.50657 32.8202 7.7246 32.5935 7.858L31.6995 8.374C31.4706 8.50367 31.1996 8.53711 30.946 8.46698C30.6925 8.39684 30.4772 8.22887 30.3475 8C30.2141 7.77324 30.1762 7.50278 30.2422 7.2481C30.3082 6.99343 30.4727 6.77541 30.6995 6.642L31.5935 6.126C31.8224 5.99634 32.0934 5.96289 32.3469 6.03303C32.6005 6.10317 32.8158 6.27114 32.9455 6.5ZM34.6875 13C34.6875 13.552 34.2475 14 33.7035 14H32.6715C32.1285 14 31.6875 13.552 31.6875 13C31.6875 12.448 32.1275 12 32.6715 12H33.7035C34.2465 12 34.6875 12.448 34.6875 13ZM32.9455 19.5C32.8158 19.7289 32.6005 19.8968 32.3469 19.967C32.0934 20.0371 31.8224 20.0037 31.5935 19.874L30.6995 19.358C30.4727 19.2246 30.3082 19.0066 30.2422 18.7519C30.1762 18.4972 30.2141 18.2268 30.3475 18C30.4772 17.7711 30.6925 17.6032 30.946 17.533C31.1996 17.4629 31.4706 17.4963 31.6995 17.626L32.5935 18.142C33.0635 18.414 33.2215 19.022 32.9455 19.5ZM28.1875 24.258C27.9607 24.3914 27.6902 24.4293 27.4356 24.3632C27.1809 24.2972 26.9629 24.1328 26.8295 23.906L26.3135 23.012C26.1838 22.7831 26.1504 22.5121 26.2205 22.2586C26.2906 22.005 26.4586 21.7897 26.6875 21.66C26.9142 21.5266 27.1847 21.4887 27.4394 21.5548C27.694 21.6208 27.9121 21.7852 28.0455 22.012L28.5615 22.906C28.6911 23.1349 28.7246 23.4059 28.6544 23.6595C28.5843 23.913 28.4163 24.1283 28.1875 24.258ZM21.6875 26C21.1355 26 20.6875 25.56 20.6875 25.016V23.984C20.6875 23.441 21.1355 23 21.6875 23C22.2395 23 22.6875 23.44 22.6875 23.984V25.016C22.6864 25.1463 22.6597 25.2751 22.6089 25.395C22.5581 25.515 22.4841 25.6237 22.3913 25.7151C22.2984 25.8065 22.1885 25.8787 22.0677 25.9276C21.9469 25.9764 21.8177 26.0011 21.6875 26ZM15.1875 24.258C14.9586 24.1283 14.7906 23.913 14.7205 23.6595C14.6504 23.4059 14.6838 23.1349 14.8135 22.906L15.3295 22.012C15.4629 21.7852 15.6809 21.6208 15.9356 21.5548C16.1902 21.4887 16.4607 21.5266 16.6875 21.66C16.9163 21.7897 17.0843 22.005 17.1544 22.2586C17.2246 22.5121 17.1911 22.7831 17.0615 23.012L16.5455 23.906C16.4121 24.1328 16.194 24.2972 15.9394 24.3632C15.6847 24.4293 15.4142 24.3914 15.1875 24.258ZM10.4295 19.5C10.2961 19.2732 10.2582 19.0028 10.3242 18.7481C10.3902 18.4934 10.5547 18.2754 10.7815 18.142L11.6755 17.626C11.9044 17.4963 12.1754 17.4629 12.4289 17.533C12.6825 17.6032 12.8978 17.7711 13.0275 18C13.1609 18.2268 13.1987 18.4972 13.1327 18.7519C13.0667 19.0066 12.9022 19.2246 12.6755 19.358L11.7815 19.874C11.5526 20.0037 11.2816 20.0371 11.028 19.967C10.7745 19.8968 10.5592 19.7289 10.4295 19.5ZM8.68747 13C8.68747 12.448 9.12747 12 9.67147 12H10.7035C11.2465 12 11.6875 12.448 11.6875 13C11.6875 13.552 11.2475 14 10.7035 14H9.67147C9.5412 13.999 9.41241 13.9723 9.29245 13.9214C9.1725 13.8706 9.06373 13.7967 8.97235 13.7038C8.88098 13.6109 8.80879 13.501 8.75991 13.3802C8.71103 13.2595 8.68642 13.1303 8.68747 13ZM10.4295 6.5C10.5592 6.27114 10.7745 6.10317 11.028 6.03303C11.2816 5.96289 11.5526 5.99634 11.7815 6.126L12.6755 6.642C13.1455 6.914 13.3035 7.522 13.0275 8C12.8978 8.22887 12.6825 8.39684 12.4289 8.46698C12.1754 8.53711 11.9044 8.50367 11.6755 8.374L10.7815 7.858C10.5547 7.7246 10.3902 7.50657 10.3242 7.2519C10.2582 6.99723 10.2961 6.72676 10.4295 6.5ZM15.1875 1.742C15.4142 1.6086 15.6847 1.57074 15.9394 1.63676C16.194 1.70277 16.4121 1.86724 16.5455 2.094L17.0615 2.988C17.1911 3.21689 17.2246 3.48791 17.1544 3.74145C17.0843 3.99499 16.9163 4.21029 16.6875 4.34C16.4607 4.4734 16.1902 4.51126 15.9356 4.44525C15.6809 4.37923 15.4629 4.21476 15.3295 3.988L14.8135 3.094C14.6838 2.86511 14.6504 2.5941 14.7205 2.34055C14.7906 2.08701 14.9586 1.87171 15.1875 1.742Z" fill="#FFB526"/>
<path fill-rule="evenodd" clip-rule="evenodd" d="M27.6855 18C27.6105 15.64 25.6945 13.75 23.3425 13.75C22.9305 13.75 22.5325 13.808 22.1545 13.916C20.7855 11.015 17.7775 9 14.2875 9C9.50747 9 5.63248 12.778 5.63248 17.438C5.63248 17.726 5.64748 18.012 5.67648 18.293C4.06521 18.7744 2.68111 19.8198 1.77733 21.238C0.873563 22.6562 0.510531 24.3523 0.75464 26.0161C0.998748 27.68 1.83368 29.2003 3.10672 30.2991C4.37976 31.3979 6.00582 32.0017 7.68748 32H27.6885C29.545 32 31.3255 31.2625 32.6382 29.9497C33.951 28.637 34.6885 26.8565 34.6885 25C34.6885 23.1435 33.951 21.363 32.6382 20.0503C31.3255 18.7375 29.545 18 27.6885 18H27.6855Z" fill="#DDDDDD"/>
</svg>
